<?xml version="1.0" encoding="UTF-8"?>
<svg width="31px" height="30px" viewBox="0 0 31 30" version="1.1" xmlns="http://www.w3.org/2000/svg" xmlns:xlink="http://www.w3.org/1999/xlink">
    <!-- Generator: Sketch 54.1 (76490) - https://sketchapp.com -->
    <title>Shape</title>
    <desc>Created with Sketch.</desc>
    <g id="Page-1" stroke="none" stroke-width="1" fill="none" fill-rule="evenodd">
        <g id="logo" fill="#006BB8" fill-rule="nonzero">
            <path d="M28.4166667,8 L29,10.729927 L12.9166666,30 L10,30 L28.4166667,8 Z M29.7678671,13 L30.9360498,18.1165049 C31.0862447,18.6364077 30.9660888,19.2231553 30.6364109,19.6962669 L30.5188416,19.8495146 L22.9256544,29.2572815 C22.5548027,29.6240561 22.0520927,29.9256262 21.4761281,29.9881137 L21.2568219,30 L16,30 L29.7678671,13 Z M26.0157481,4 L27.7519685,4.81433225 C27.8070866,4.86862106 27.8622047,4.88671733 27.9173228,4.91687779 L28,4.97719869 L8.4055118,29 C8.4055118,28.9389251 8.3590059,28.8778502 8.30087352,28.8167752 L8.24015748,28.7557003 L7,27.2084691 L26.0157481,4 Z M21.9831932,2 L24,2.96167247 L5.42857143,25 L4,23.3170732 L12.9915966,12.6585365 L21.9831932,2 Z M16.0567131,0.108789994 L16.2483286,0.179836514 L19,1.53860128 L12.9301366,9.05177112 C12.6873422,8.49227975 12.2826846,8.01271572 11.7970955,7.61307902 C10.0975338,6.17438693 7.66958848,6.49409628 6.21282129,8.17257039 C4.7560541,9.85104451 5.07978014,12.328792 6.77934187,13.6875568 C7.19556106,14.0301025 7.67124014,14.255204 8.1554135,14.4131945 L8.39797208,14.4868302 L2.32810876,22 L0.466684019,19.6021798 C0.102492217,19.1705722 -0.0650360044,18.6094823 0.0230984028,18.0937112 L0.0620264691,17.9237058 L2.73276632,6.57402362 C2.81369783,6.3342416 2.89462934,6.09445958 3.05649237,5.85467757 C3.25072799,5.66285196 3.44496361,5.47102635 3.68063617,5.32012353 L3.86580748,5.21525886 L14.4678354,0.179836514 C14.9714093,-0.0333030577 15.538929,-0.0569852349 16.0567131,0.108789994 Z M10.2483186,9.45536675 C11.0972764,10.0539789 11.227117,11.2159908 10.6378404,12.1081391 L10.5189239,12.2720509 L10.3870454,12.4097014 C9.66029054,13.108033 8.57162703,13.2287614 7.72266926,12.5446332 C6.91085339,11.817747 6.73044986,10.6365569 7.45206396,9.72794909 C8.17367808,8.91020208 9.346301,8.72848052 10.2483186,9.45536675 L10.2483186,9.45536675 Z" id="Shape"></path>
        </g>
    </g>
</svg>